{"title":"Green Lantern 2011 TS x264 Feel-Free","uid":6488776,"size":1259861652,"categoryP":"video","categoryS":"movies","magnet":"?xt=urn:btih:8e128938ace61f441863771a4633cc893f16e13c&amp;dn=Green+Lantern+2011+TS+x264+Feel-Free&amp;tr=udp%3A%2F%2Ftracker.openbittorrent.com%3A80&amp;tr=udp%3A%2F%2Fopen.demonii.com%3A1337&amp;tr=udp%3A%2F%2Ftracker.coppersurfer.tk%3A6969&amp;tr=udp%3A%2F%2Fexodus.desync.com%3A6969","seeders":0,"leechers":1,"uploader":"HeroMaster","files":-1,"time":1308808435,"description":"Green Lantern 2011 TS x264 Feel-Free\n\n\nGenre:Action | Crime | Sci-Fi\nLanguage:English\nIMDb:http://www.imdb.com/title/tt1133985/\nSource:Green Lantern DVD TS/IMAGINE Thanks!\n\nFormat : MPEG-4\nFormat profile : Base Media\nCodec ID : isom\nFile size : 1.17 GiB\nDuration : 1h 41mn\nOverall bit rate : 1 661 Kbps\n\nVideo\nID : 1\nFormat : AVC\nFormat/Info : Advanced Video Codec\nFormat profile : &lt;a class=&quot;__cf_email__&quot; href=&quot;/cdn-cgi/l/email-protection&quot; data-cfemail=&quot;5f173638371f136b716e&quot;&gt;[email&amp;#160;protected]&lt;/a&gt;&lt;script cf-hash='f9e31' type=&quot;text/javascript&quot;&gt;\n/* &lt;![CDATA[ */!function(){try{var t=&quot;currentScript&quot;in document?document.currentScript:function(){for(var t=document.getElementsByTagName(&quot;script&quot;),e=t.length;e--;)if(t[e].getAttribute(&quot;cf-hash&quot;))return t[e]}();if(t&amp;&amp;t.previousSibling){var e,r,n,i,c=t.previousSibling,a=c.getAttribute(&quot;data-cfemail&quot;);if(a){for(e=&quot;&quot;,r=parseInt(a.substr(0,2),16),n=2;a.length-n;n+=2)i=parseInt(a.substr(n,2),16)^r,e+=String.fromCharCode(i);e=document.createTextNode(e),c.parentNode.replaceChild(e,c)}}}catch(u){}}();/* ]]&gt; */&lt;/script&gt;\nFormat settings, CABAC : Yes\nFormat settings, ReFrames : 3 frames\nCodec ID : avc1\nCodec ID/Info : Advanced Video Coding\nDuration : 1h 41mn\nBit rate mode : Variable\nBit rate : 1 445 Kbps\nMaximum bit rate : 4 611 Kbps\nWidth : 720 pixels\nHeight : 320 pixels\nDisplay aspect ratio : 2.25:1\nFrame rate mode : Constant\nFrame rate : 25.000 fps\nColor space : YUV\nChroma subsampling : 4:2:0\nBit depth : 8 bits\nScan type : Progressive\nBits/(Pixel*Frame) : 0.251\nStream size : 1.01 GiB (86%)\nWriting library : x264\n\nAudio\nID : 2\nFormat : AAC\nFormat/Info : Advanced Audio Codec\nFormat version : Version 4\nFormat profile : LC\nFormat settings, SBR : No\nCodec ID : 40\nDuration : 1h 41mn\nBit rate mode : Variable\nBit rate : 224 Kbps\nMaximum bit rate : 336 Kbps\nChannel(s) : 2 channels\nChannel positions : Front: L R\nSampling rate : 44.1 KHz\nStream size : 162 MiB (13%)\n\n\nPlot:\n\nA test pilot is granted a mystical green ring that bestows him with otherworldly powers, as well as membership into an intergalactic squadron tasked with keeping peace within the universe.\n\n\nScreens:\n\n &lt;a href=&quot;\nhttp://leetleech.org/images/84705179166813308570.png&quot; rel=&quot;nofollow&quot; target=&quot;_NEW&quot;&gt;\nhttp://leetleech.org/images/84705179166813308570.png&lt;/a&gt;\n &lt;a href=&quot;\nhttp://leetleech.org/images/33608776464281587674.png&quot; rel=&quot;nofollow&quot; target=&quot;_NEW&quot;&gt;\nhttp://leetleech.org/images/33608776464281587674.png&lt;/a&gt;\n &lt;a href=&quot;\nhttp://leetleech.org/images/75775011769828106303.png&quot; rel=&quot;nofollow&quot; target=&quot;_NEW&quot;&gt;\nhttp://leetleech.org/images/75775011769828106303.png&lt;/a&gt;\n\n\nENJOY!","torrent":{"xt":"urn:btih:8e128938ace61f441863771a4633cc893f16e13c","amp;dn":"Green+Lantern+2011+TS+x264+Feel-Free","amp;tr":["udp%3A%2F%2Ftracker.openbittorrent.com%3A80","udp%3A%2F%2Fopen.demonii.com%3A1337","udp%3A%2F%2Ftracker.coppersurfer.tk%3A6969","udp%3A%2F%2Fexodus.desync.com%3A6969"],"infoHash":"8e128938ace61f441863771a4633cc893f16e13c","infoHashBuffer":{"type":"Buffer","data":[142,18,137,56,172,230,31,68,24,99,119,26,70,51,204,137,63,22,225,60]},"announce":[],"urlList":[]}}